<svg width="24" height="24" viewBox="0 0 24 24" fill="none" xmlns="http://www.w3.org/2000/svg">
<path fill-rule="evenodd" clip-rule="evenodd" d="M15 4.875H18C18.6213 4.875 19.125 5.37868 19.125 6V9C19.125 9.62132 18.6213 10.125 18 10.125H15C14.3787 10.125 13.875 9.62132 13.875 9V6C13.875 5.37868 14.3787 4.875 15 4.875ZM12.75 6C12.75 4.75736 13.7574 3.75 15 3.75H18C19.2426 3.75 20.25 4.75736 20.25 6V9C20.25 10.2426 19.2426 11.25 18 11.25H15C13.7574 11.25 12.75 10.2426 12.75 9V6ZM9 13.875C9.62132 13.875 10.125 14.3787 10.125 15V18C10.125 18.6213 9.62132 19.125 9 19.125H6C5.37868 19.125 4.875 18.6213 4.875 18V15C4.875 14.3787 5.37868 13.875 6 13.875H9ZM3.75 15C3.75 13.7574 4.75736 12.75 6 12.75H9C10.2426 12.75 11.25 13.7574 11.25 15V18C11.25 19.2426 10.2426 20.25 9 20.25H6C4.75736 20.25 3.75 19.2426 3.75 18V15ZM7.5 10.125C8.94975 10.125 10.125 8.94975 10.125 7.5C10.125 6.05025 8.94975 4.875 7.5 4.875C6.05025 4.875 4.875 6.05025 4.875 7.5C4.875 8.94975 6.05025 10.125 7.5 10.125ZM7.5 11.25C9.57107 11.25 11.25 9.57107 11.25 7.5C11.25 5.42893 9.57107 3.75 7.5 3.75C5.42893 3.75 3.75 5.42893 3.75 7.5C3.75 9.57107 5.42893 11.25 7.5 11.25ZM19.125 16.5C19.125 17.9497 17.9497 19.125 16.5 19.125C15.0503 19.125 13.875 17.9497 13.875 16.5C13.875 15.0503 15.0503 13.875 16.5 13.875C17.9497 13.875 19.125 15.0503 19.125 16.5ZM20.25 16.5C20.25 18.5711 18.5711 20.25 16.5 20.25C14.4289 20.25 12.75 18.5711 12.75 16.5C12.75 14.4289 14.4289 12.75 16.5 12.75C18.5711 12.75 20.25 14.4289 20.25 16.5Z" fill="white"/>
</svg>
