<svg width="24" height="24" viewBox="0 0 24 24" fill="none" xmlns="http://www.w3.org/2000/svg">
<g clip-path="url(#clip0_105_19)">
<path fill-rule="evenodd" clip-rule="evenodd" d="M12 14C14.2092 14 16 12.2091 16 10C16 7.79086 14.2092 6 12 6C9.79086 6 8 7.79086 8 10C8 12.2091 9.79086 14 12 14ZM12 12.5C13.3807 12.5 14.5 11.3807 14.5 10C14.5 8.6193 13.3807 7.5 12 7.5C10.6193 7.5 9.5 8.6193 9.5 10C9.5 11.3807 10.6193 12.5 12 12.5Z" fill="white"/>
<path fill-rule="evenodd" clip-rule="evenodd" d="M14.8418 -0.13511L15.2439 2.81406C15.5711 2.97464 15.8857 3.1569 16.1859 3.35898L18.9421 2.23223C19.405 2.043 19.9365 2.2248 20.1866 2.65787L22.3137 6.34213C22.5637 6.77521 22.4554 7.3264 22.0601 7.63266L19.7057 9.4566C19.7177 9.6362 19.7238 9.8174 19.7238 10C19.7238 10.1826 19.7177 10.3638 19.7057 10.5434L22.0601 12.3673C22.4554 12.6736 22.5637 13.2248 22.3137 13.6579L20.1866 17.3421C19.9365 17.7752 19.405 17.957 18.9421 17.7678L16.1859 16.641C15.8857 16.8431 15.5711 17.0254 15.2439 17.1859L14.8418 20.1351C14.7742 20.6306 14.351 21 13.8509 21H9.59676C9.09669 21 8.6735 20.6306 8.60593 20.1351L8.20377 17.1859C7.87659 17.0254 7.56198 16.8431 7.26181 16.641L4.50558 17.7678C4.0427 17.957 3.51119 17.7752 3.26115 17.3421L1.13405 13.6579C0.884011 13.2248 0.992321 12.6736 1.38764 12.3673L3.74204 10.5434C3.72999 10.3638 3.72388 10.1826 3.72388 10C3.72388 9.8174 3.72999 9.6362 3.74204 9.4566L1.38764 7.63266C0.992321 7.3264 0.884011 6.77521 1.13404 6.34213L3.26115 2.65787C3.51118 2.2248 4.04269 2.043 4.50558 2.23223L7.26181 3.35898C7.56198 3.1569 7.87659 2.97464 8.20377 2.81406L8.60593 -0.13511C8.6735 -0.6306 9.09669 -1 9.59676 -1H13.8509C14.351 -1 14.7742 -0.6306 14.8418 -0.13511ZM13.8657 3.80854L14.5831 4.16063C14.8487 4.29098 15.1042 4.43902 15.3482 4.60328L16.0124 5.05042L19.1058 3.78584L20.7964 6.71416L18.1556 8.76L18.209 9.557C18.2188 9.7032 18.2238 9.8509 18.2238 10C18.2238 10.1491 18.2188 10.2968 18.209 10.443L18.1556 11.24L20.7964 13.2858L19.1058 16.2142L16.0124 14.9496L15.3482 15.3967C15.1042 15.561 14.8487 15.709 14.5831 15.8394L13.8657 16.1915L13.4145 19.5H10.0332L9.58204 16.1915L8.86464 15.8394C8.59906 15.709 8.3435 15.561 8.0995 15.3967L7.43533 14.9496L4.34197 16.2142L2.65131 13.2858L5.29213 11.24L5.23868 10.443C5.22887 10.2968 5.22387 10.1491 5.22387 10C5.22387 9.8509 5.22887 9.7032 5.23868 9.557L5.29213 8.76L2.6513 6.71416L4.34197 3.78584L7.43533 5.05042L8.0995 4.60328C8.34349 4.43902 8.59906 4.29098 8.86465 4.16063L9.58204 3.80854L10.0332 0.5H13.4145L13.8657 3.80854Z" fill="white"/>
</g>
<defs>
<clipPath id="clip0_105_19">
<rect width="24" height="24" fill="white"/>
</clipPath>
</defs>
</svg>
