<svg width="15" height="14" viewBox="0 0 15 14" fill="none" xmlns="http://www.w3.org/2000/svg">
<path d="M6.55248 0.808126C6.85854 -0.098927 8.14146 -0.098927 8.44752 0.808126L9.46209 3.81499C9.59794 4.21762 9.97343 4.49043 10.3983 4.49521L13.5716 4.53096C14.5288 4.54174 14.9252 5.76187 14.1572 6.33324L11.611 8.22732C11.27 8.48095 11.1266 8.92236 11.2534 9.32795L12.1999 12.3569C12.4855 13.2706 11.4476 14.0247 10.6668 13.4708L8.07864 11.6345C7.73206 11.3886 7.26794 11.3886 6.92136 11.6345L4.33317 13.4708C3.55241 14.0247 2.51451 13.2706 2.80006 12.3569L3.74664 9.32795C3.87339 8.92236 3.72997 8.48095 3.38902 8.22732L0.842852 6.33324C0.0747693 5.76187 0.471212 4.54174 1.42845 4.53096L4.60166 4.49521C5.02657 4.49043 5.40206 4.21762 5.53791 3.81499L6.55248 0.808126Z" fill="#FFB547"/>
</svg>
